<svg aria-hidden="true" style="position: absolute; width: 0; height: 0; overflow: hidden;" version="1.1" xmlns="http://www.w3.org/2000/svg" xmlns:xlink="http://www.w3.org/1999/xlink">
<defs>
<symbol id="icon-search" viewBox="0 0 32 32">
<path d="M30.239 28.679c0.357 0.317 0.357 0.655 0 1.012l-1.309 1.31c-0.357 0.357-0.695 0.357-1.012 0l-7.202-7.202c-0.159-0.159-0.238-0.317-0.238-0.476v-0.833c-2.341 2.024-5.040 3.036-8.095 3.036-3.413 0-6.329-1.21-8.75-3.631s-3.631-5.337-3.631-8.75 1.21-6.329 3.631-8.75c2.421-2.421 5.337-3.631 8.75-3.631s6.329 1.21 8.75 3.631c2.421 2.421 3.631 5.337 3.631 8.75 0 3.056-1.012 5.754-3.036 8.095h0.833c0.198 0 0.357 0.079 0.476 0.238l7.202 7.202zM5.655 19.869c1.865 1.865 4.107 2.798 6.726 2.798s4.861-0.933 6.726-2.798c1.865-1.865 2.798-4.107 2.798-6.726s-0.933-4.861-2.798-6.726c-1.865-1.865-4.107-2.798-6.726-2.798s-4.861 0.933-6.726 2.798c-1.865 1.865-2.798 4.107-2.798 6.726s0.933 4.861 2.798 6.726z"></path>
</symbol>
<symbol id="icon-like" viewBox="0 0 37 32">
<path d="M31.882 3.368c1.579 1.36 2.632 2.982 3.158 4.868 0.526 1.842 0.548 3.618 0.066 5.329s-1.316 3.18-2.5 4.408l-11.513 11.71c-0.702 0.702-1.535 1.053-2.5 1.053s-1.798-0.351-2.5-1.053l-11.513-11.71c-1.184-1.228-2.018-2.697-2.5-4.408-0.482-1.754-0.461-3.553 0.066-5.395s1.579-3.443 3.158-4.803c1.886-1.579 4.101-2.259 6.645-2.039 2.588 0.175 4.803 1.184 6.645 3.026 1.842-1.842 4.035-2.851 6.579-3.026 2.588-0.219 4.825 0.461 6.711 2.039zM30.369 15.737c1.272-1.316 1.908-2.917 1.908-4.803 0-1.93-0.79-3.64-2.369-5.132-1.316-1.053-2.851-1.513-4.605-1.382-1.71 0.132-3.18 0.833-4.408 2.105l-2.302 2.303-2.303-2.303c-1.228-1.272-2.719-1.974-4.474-2.105-1.711-0.132-3.224 0.329-4.539 1.382-1.579 1.491-2.368 3.202-2.368 5.132 0 1.886 0.636 3.487 1.908 4.803l11.579 11.711c0.132 0.175 0.263 0.175 0.395 0l11.579-11.711z"></path>
</symbol>
<symbol id="icon-cart" viewBox="0 0 27 32">
<path d="M21.334 8.381h5.714v18.095c0 1.31-0.476 2.421-1.429 3.333-0.913 0.952-2.024 1.429-3.333 1.429h-17.143c-1.31 0-2.44-0.476-3.393-1.429-0.913-0.913-1.369-2.024-1.369-3.333v-18.095h5.714c0-2.103 0.734-3.889 2.202-5.357 1.508-1.508 3.313-2.262 5.417-2.262s3.889 0.754 5.357 2.262c1.508 1.468 2.262 3.254 2.262 5.357zM17.048 5.048c-0.913-0.952-2.024-1.429-3.333-1.429s-2.44 0.476-3.393 1.429c-0.913 0.913-1.369 2.024-1.369 3.333h9.524c0-1.31-0.476-2.421-1.429-3.333zM24.191 26.476v-15.238h-2.857v2.381c0 0.397-0.139 0.734-0.417 1.012s-0.615 0.417-1.012 0.417-0.734-0.139-1.012-0.417c-0.278-0.278-0.417-0.615-0.417-1.012v-2.381h-9.524v2.381c0 0.397-0.139 0.734-0.417 1.012s-0.615 0.417-1.012 0.417c-0.397 0-0.734-0.139-1.012-0.417s-0.417-0.615-0.417-1.012v-2.381h-2.857v15.238c0 0.516 0.179 0.952 0.536 1.31 0.397 0.397 0.853 0.595 1.369 0.595h17.143c0.516 0 0.952-0.198 1.31-0.595 0.397-0.357 0.595-0.794 0.595-1.31z"></path>
</symbol>
<symbol id="icon-Shoes-Shadow" viewBox="0 0 684 32">
<path d="M679.274 7.52c0.089 3.544-150.712 10.201-336.822 14.868s-337.055 5.579-337.144 2.035c-0.089-3.544 150.712-10.201 336.822-14.868s337.055-5.579 337.144-2.035z"></path>
</symbol>
</defs>
</svg>
